# xmcd CD database file
#
# Track frame offsets:
#	150
#	16866
#	57443
#	87792
#	124248
#	134431
#	186301
#	213718
#
# Disc length: 3137 seconds
#
# Revision: 0
# Processed by: cddbd v1.5.2PL0 Copyright (c) Steve Scherf et al.
# Submitted via: CDex 1.50
#
DISCID=730c3f08
DTITLE=Ruben Ferrero - Luz Cardinal
DYEAR=2004
DGENRE=Jazz
TTITLE0=La Furia - Malambo
TTITLE1=Zamba a Neruda
TTITLE2=Candombe del puerto
TTITLE3=Esencias - canción guaraní
TTITLE4=Soy Chacarera
TTITLE5=Mana Munanqui - testamento quichua
TTITLE6=Bailando con las raices - carnavalito
TTITLE7=Pampa - malambo
EXTD=YEAR: 2004
EXTT0=
EXTT1=
EXTT2=
EXTT3=
EXTT4=
EXTT5=
EXTT6=
EXTT7=
PLAYORDER=
